<?xml version="1.0" standalone="no"?><svg xmlns:xlink="http://www.w3.org/1999/xlink" xmlns="http://www.w3.org/2000/svg" viewBox="0 0 1000 642.8557742052923" preserveAspectRatio="xMaxYMax slice"><g transform="scale(0.958056295387917)"><rect x="0" y="0" width="1118.3333333333333" height="671" fill="#ffffff"/><rect x="74.55555555555556" y="149.11111111111111" width="74.55555555555556" height="74.55555555555556" fill="#ffffff"/><rect x="111.83" y="149.11" width="37.28" height="37.28" fill="#fdf2fb"/><rect x="298.22222222222223" y="149.11111111111111" width="74.55555555555556" height="74.55555555555556" fill="#ffffff"/><rect x="335.5" y="186.39" width="37.28" height="37.28" fill="#f1d6fa"/><rect x="894.6666666666667" y="149.11111111111111" width="74.55555555555556" height="74.55555555555556" fill="#ffffff"/><rect x="223.66666666666669" y="223.66666666666669" width="74.55555555555556" height="74.55555555555556" fill="#ffffff"/><rect x="223.67" y="223.67" width="37.28" height="37.28" fill="#5dfffd"/><rect x="260.94" y="223.67" width="37.28" height="37.28" fill="#5efffd"/><rect x="372.77777777777777" y="223.66666666666669" width="74.55555555555556" height="74.55555555555556" fill="#ffffff"/><rect x="410.06" y="223.67" width="37.28" height="37.28" fill="#52fffc"/><rect x="410.06" y="260.94" width="37.28" height="37.28" fill="#faddf5"/><rect x="447.33333333333337" y="223.66666666666669" width="74.55555555555556" height="74.55555555555556" fill="#ffffff"/><rect x="447.33" y="223.67" width="37.28" height="37.28" fill="#d3f9d6"/><rect x="484.61" y="223.67" width="37.28" height="37.28" fill="#7bec83"/><rect x="484.61" y="260.94" width="37.28" height="37.28" fill="#bf45e8"/><rect x="521.8888888888889" y="223.66666666666669" width="74.55555555555556" height="74.55555555555556" fill="#ffffff"/><rect x="559.17" y="260.94" width="37.28" height="37.28" fill="#b0f4b1"/><rect x="671" y="223.66666666666669" width="74.55555555555556" height="74.55555555555556" fill="#ffffff"/><rect x="671" y="260.94" width="37.28" height="37.28" fill="#68e971"/><rect x="745.5555555555555" y="223.66666666666669" width="74.55555555555556" height="74.55555555555556" fill="#ffffff"/><rect x="782.83" y="223.67" width="37.28" height="37.28" fill="#c0f6c1"/><rect x="782.83" y="260.94" width="37.28" height="37.28" fill="#eaffff"/><rect x="969.2222222222223" y="223.66666666666669" width="74.55555555555556" height="74.55555555555556" fill="#ffffff"/><rect x="0" y="298.22222222222223" width="74.55555555555556" height="74.55555555555556" fill="#ffffff"/><rect x="37.28" y="298.22" width="37.28" height="37.28" fill="#adfffe"/><rect x="37.28" y="335.5" width="37.28" height="37.28" fill="#70fffd"/><rect x="149.11111111111111" y="298.22222222222223" width="74.55555555555556" height="74.55555555555556" fill="#ffffff"/><rect x="149.11" y="298.22" width="37.28" height="37.28" fill="#36fffc"/><rect x="186.39" y="335.5" width="37.28" height="37.28" fill="#6fea70"/><rect x="298.22222222222223" y="298.22222222222223" width="74.55555555555556" height="74.55555555555556" fill="#ffffff"/><rect x="298.22" y="298.22" width="37.28" height="37.28" fill="#fffcfe"/><rect x="335.5" y="335.5" width="37.28" height="37.28" fill="#cf72ed"/><rect x="372.77777777777777" y="298.22222222222223" width="74.55555555555556" height="74.55555555555556" fill="#ffffff"/><rect x="372.78" y="298.22" width="37.28" height="37.28" fill="#a2fffe"/><rect x="410.06" y="298.22" width="37.28" height="37.28" fill="#bb38e6"/><rect x="447.33333333333337" y="298.22222222222223" width="74.55555555555556" height="74.55555555555556" fill="#ffffff"/><rect x="484.61" y="298.22" width="37.28" height="37.28" fill="#ba34e6"/><rect x="484.61" y="335.5" width="37.28" height="37.28" fill="#e9bef7"/><rect x="521.8888888888889" y="298.22222222222223" width="74.55555555555556" height="74.55555555555556" fill="#ffffff"/><rect x="559.17" y="335.5" width="37.28" height="37.28" fill="#db96f2"/><rect x="671" y="298.22222222222223" width="74.55555555555556" height="74.55555555555556" fill="#ffffff"/><rect x="708.28" y="298.22" width="37.28" height="37.28" fill="#ec7bd7"/><rect x="708.28" y="335.5" width="37.28" height="37.28" fill="#6fea71"/><rect x="745.5555555555555" y="298.22222222222223" width="74.55555555555556" height="74.55555555555556" fill="#ffffff"/><rect x="782.83" y="298.22" width="37.28" height="37.28" fill="#f8fef8"/><rect x="894.6666666666667" y="298.22222222222223" width="74.55555555555556" height="74.55555555555556" fill="#ffffff"/><rect x="931.94" y="335.5" width="37.28" height="37.28" fill="#ef92df"/><rect x="969.2222222222223" y="298.22222222222223" width="74.55555555555556" height="74.55555555555556" fill="#ffffff"/><rect x="969.22" y="298.22" width="37.28" height="37.28" fill="#f4b2e8"/><rect x="1006.5" y="298.22" width="37.28" height="37.28" fill="#abfffe"/><rect x="969.22" y="335.5" width="37.28" height="37.28" fill="#f6fef7"/><rect x="1006.5" y="335.5" width="37.28" height="37.28" fill="#3de33f"/><rect x="1043.7777777777778" y="298.22222222222223" width="74.55555555555556" height="74.55555555555556" fill="#ffffff"/><rect x="1081.06" y="298.22" width="37.28" height="37.28" fill="#7eec86"/><rect x="0" y="372.77777777777777" width="74.55555555555556" height="74.55555555555556" fill="#ffffff"/><rect x="37.28" y="372.78" width="37.28" height="37.28" fill="#a2f2a3"/><rect x="0" y="410.06" width="37.28" height="37.28" fill="#fcebf9"/><rect x="37.28" y="410.06" width="37.28" height="37.28" fill="#57fffd"/><rect x="223.66666666666669" y="372.77777777777777" width="74.55555555555556" height="74.55555555555556" fill="#ffffff"/><rect x="223.67" y="410.06" width="37.28" height="37.28" fill="#f3ade7"/><rect x="298.22222222222223" y="372.77777777777777" width="74.55555555555556" height="74.55555555555556" fill="#ffffff"/><rect x="335.5" y="372.78" width="37.28" height="37.28" fill="#46fffc"/><rect x="335.5" y="410.06" width="37.28" height="37.28" fill="#eecef9"/><rect x="447.33333333333337" y="372.77777777777777" width="74.55555555555556" height="74.55555555555556" fill="#ffffff"/><rect x="447.33" y="372.78" width="37.28" height="37.28" fill="#caf7cd"/><rect x="484.61" y="372.78" width="37.28" height="37.28" fill="#c0fffe"/><rect x="596.4444444444445" y="372.77777777777777" width="74.55555555555556" height="74.55555555555556" fill="#ffffff"/><rect x="633.72" y="372.78" width="37.28" height="37.28" fill="#fbfefb"/><rect x="596.44" y="410.06" width="37.28" height="37.28" fill="#e4b0f5"/><rect x="633.72" y="410.06" width="37.28" height="37.28" fill="#e652cb"/><rect x="671" y="372.77777777777777" width="74.55555555555556" height="74.55555555555556" fill="#ffffff"/><rect x="671" y="372.78" width="37.28" height="37.28" fill="#70ea79"/><rect x="671" y="410.06" width="37.28" height="37.28" fill="#38fffc"/><rect x="708.28" y="410.06" width="37.28" height="37.28" fill="#d9f9db"/><rect x="820.1111111111111" y="372.77777777777777" width="74.55555555555556" height="74.55555555555556" fill="#ffffff"/><rect x="820.11" y="372.78" width="37.28" height="37.28" fill="#92ef93"/><rect x="857.39" y="372.78" width="37.28" height="37.28" fill="#ffffff"/><rect x="820.11" y="410.06" width="37.28" height="37.28" fill="#d9fad9"/><rect x="894.6666666666667" y="372.77777777777777" width="74.55555555555556" height="74.55555555555556" fill="#ffffff"/><rect x="894.67" y="372.78" width="37.28" height="37.28" fill="#ee87db"/><rect x="931.94" y="372.78" width="37.28" height="37.28" fill="#ecc9f8"/><rect x="894.67" y="410.06" width="37.28" height="37.28" fill="#f8fef8"/><rect x="931.94" y="410.06" width="37.28" height="37.28" fill="#dafffe"/><rect x="969.2222222222223" y="372.77777777777777" width="74.55555555555556" height="74.55555555555556" fill="#ffffff"/><rect x="969.22" y="372.78" width="37.28" height="37.28" fill="#aef3b2"/><rect x="1006.5" y="372.78" width="37.28" height="37.28" fill="#6bea6d"/><rect x="969.22" y="410.06" width="37.28" height="37.28" fill="#b21de3"/><rect x="1006.5" y="410.06" width="37.28" height="37.28" fill="#77eb7f"/><rect x="1043.7777777777778" y="372.77777777777777" width="74.55555555555556" height="74.55555555555556" fill="#ffffff"/><rect x="1043.78" y="372.78" width="37.28" height="37.28" fill="#e8fce9"/><rect x="1081.06" y="372.78" width="37.28" height="37.28" fill="#ebfcec"/><rect x="1081.06" y="410.06" width="37.28" height="37.28" fill="#64e966"/><rect x="0" y="447.33333333333337" width="74.55555555555556" height="74.55555555555556" fill="#ffffff"/><rect x="0" y="484.61" width="37.28" height="37.28" fill="#eecdf9"/><rect x="37.28" y="484.61" width="37.28" height="37.28" fill="#d6f9d7"/><rect x="149.11111111111111" y="447.33333333333337" width="74.55555555555556" height="74.55555555555556" fill="#ffffff"/><rect x="186.39" y="447.33" width="37.28" height="37.28" fill="#f099e1"/><rect x="149.11" y="484.61" width="37.28" height="37.28" fill="#7cec83"/><rect x="186.39" y="484.61" width="37.28" height="37.28" fill="#96f098"/><rect x="223.66666666666669" y="447.33333333333337" width="74.55555555555556" height="74.55555555555556" fill="#ffffff"/><rect x="223.67" y="447.33" width="37.28" height="37.28" fill="#a5fffe"/><rect x="447.33333333333337" y="447.33333333333337" width="74.55555555555556" height="74.55555555555556" fill="#ffffff"/><rect x="447.33" y="447.33" width="37.28" height="37.28" fill="#71eb73"/><rect x="447.33" y="484.61" width="37.28" height="37.28" fill="#6dea76"/><rect x="484.61" y="484.61" width="37.28" height="37.28" fill="#f1ffff"/><rect x="521.8888888888889" y="447.33333333333337" width="74.55555555555556" height="74.55555555555556" fill="#ffffff"/><rect x="521.89" y="447.33" width="37.28" height="37.28" fill="#2be12e"/><rect x="559.17" y="447.33" width="37.28" height="37.28" fill="#f8cbf0"/><rect x="521.89" y="484.61" width="37.28" height="37.28" fill="#9dfffe"/><rect x="559.17" y="484.61" width="37.28" height="37.28" fill="#b9fffe"/><rect x="596.4444444444445" y="447.33333333333337" width="74.55555555555556" height="74.55555555555556" fill="#ffffff"/><rect x="596.44" y="447.33" width="37.28" height="37.28" fill="#f4b4e9"/><rect x="633.72" y="447.33" width="37.28" height="37.28" fill="#bcfffe"/><rect x="596.44" y="484.61" width="37.28" height="37.28" fill="#9ef1a4"/><rect x="633.72" y="484.61" width="37.28" height="37.28" fill="#ea70d4"/><rect x="671" y="447.33333333333337" width="74.55555555555556" height="74.55555555555556" fill="#ffffff"/><rect x="671" y="447.33" width="37.28" height="37.28" fill="#8dee94"/><rect x="708.28" y="484.61" width="37.28" height="37.28" fill="#fadaf4"/><rect x="745.5555555555555" y="447.33333333333337" width="74.55555555555556" height="74.55555555555556" fill="#ffffff"/><rect x="745.56" y="447.33" width="37.28" height="37.28" fill="#e1fbe1"/><rect x="782.83" y="447.33" width="37.28" height="37.28" fill="#eafcec"/><rect x="820.1111111111111" y="447.33333333333337" width="74.55555555555556" height="74.55555555555556" fill="#ffffff"/><rect x="820.11" y="447.33" width="37.28" height="37.28" fill="#64fffd"/><rect x="857.39" y="447.33" width="37.28" height="37.28" fill="#d2fffe"/><rect x="820.11" y="484.61" width="37.28" height="37.28" fill="#42fffc"/><rect x="857.39" y="484.61" width="37.28" height="37.28" fill="#44fffc"/><rect x="894.6666666666667" y="447.33333333333337" width="74.55555555555556" height="74.55555555555556" fill="#ffffff"/><rect x="894.67" y="447.33" width="37.28" height="37.28" fill="#71fffd"/><rect x="931.94" y="447.33" width="37.28" height="37.28" fill="#ecc8f8"/><rect x="894.67" y="484.61" width="37.28" height="37.28" fill="#fcf5fe"/><rect x="969.2222222222223" y="447.33333333333337" width="74.55555555555556" height="74.55555555555556" fill="#ffffff"/><rect x="969.22" y="447.33" width="37.28" height="37.28" fill="#b2f4b3"/><rect x="1006.5" y="447.33" width="37.28" height="37.28" fill="#6fea77"/><rect x="969.22" y="484.61" width="37.28" height="37.28" fill="#84ed8b"/><rect x="1043.7777777777778" y="447.33333333333337" width="74.55555555555556" height="74.55555555555556" fill="#ffffff"/><rect x="1043.78" y="447.33" width="37.28" height="37.28" fill="#89ee8a"/><rect x="1043.78" y="484.61" width="37.28" height="37.28" fill="#82ed84"/><rect x="0" y="521.8888888888889" width="74.55555555555556" height="74.55555555555556" fill="#ffffff"/><rect x="0" y="521.89" width="37.28" height="37.28" fill="#ef93df"/><rect x="37.28" y="521.89" width="37.28" height="37.28" fill="#d2f9d2"/><rect x="37.28" y="559.17" width="37.28" height="37.28" fill="#78ec7a"/><rect x="74.55555555555556" y="521.8888888888889" width="74.55555555555556" height="74.55555555555556" fill="#ffffff"/><rect x="74.56" y="521.89" width="37.28" height="37.28" fill="#9df1a3"/><rect x="111.83" y="521.89" width="37.28" height="37.28" fill="#aefffe"/><rect x="74.56" y="559.17" width="37.28" height="37.28" fill="#f2a4e4"/><rect x="111.83" y="559.17" width="37.28" height="37.28" fill="#f4b3e8"/><rect x="149.11111111111111" y="521.8888888888889" width="74.55555555555556" height="74.55555555555556" fill="#ffffff"/><rect x="149.11" y="521.89" width="37.28" height="37.28" fill="#f2fdf3"/><rect x="186.39" y="521.89" width="37.28" height="37.28" fill="#defadf"/><rect x="149.11" y="559.17" width="37.28" height="37.28" fill="#e861d0"/><rect x="186.39" y="559.17" width="37.28" height="37.28" fill="#48e54a"/><rect x="223.66666666666669" y="521.8888888888889" width="74.55555555555556" height="74.55555555555556" fill="#ffffff"/><rect x="223.67" y="521.89" width="37.28" height="37.28" fill="#b2f4b3"/><rect x="260.94" y="521.89" width="37.28" height="37.28" fill="#d78af0"/><rect x="223.67" y="559.17" width="37.28" height="37.28" fill="#f5bdeb"/><rect x="260.94" y="559.17" width="37.28" height="37.28" fill="#49fffc"/><rect x="298.22222222222223" y="521.8888888888889" width="74.55555555555556" height="74.55555555555556" fill="#ffffff"/><rect x="298.22" y="521.89" width="37.28" height="37.28" fill="#d6fffe"/><rect x="335.5" y="521.89" width="37.28" height="37.28" fill="#fefdff"/><rect x="298.22" y="559.17" width="37.28" height="37.28" fill="#d5f9d5"/><rect x="335.5" y="559.17" width="37.28" height="37.28" fill="#ea70d4"/><rect x="372.77777777777777" y="521.8888888888889" width="74.55555555555556" height="74.55555555555556" fill="#ffffff"/><rect x="372.78" y="521.89" width="37.28" height="37.28" fill="#bdf5c1"/><rect x="410.06" y="521.89" width="37.28" height="37.28" fill="#e3ffff"/><rect x="372.78" y="559.17" width="37.28" height="37.28" fill="#51e653"/><rect x="410.06" y="559.17" width="37.28" height="37.28" fill="#fcf5fe"/><rect x="447.33333333333337" y="521.8888888888889" width="74.55555555555556" height="74.55555555555556" fill="#ffffff"/><rect x="447.33" y="521.89" width="37.28" height="37.28" fill="#fcf6fe"/><rect x="484.61" y="521.89" width="37.28" height="37.28" fill="#ea6ad3"/><rect x="447.33" y="559.17" width="37.28" height="37.28" fill="#6afffd"/><rect x="484.61" y="559.17" width="37.28" height="37.28" fill="#f0ffff"/><rect x="521.8888888888889" y="521.8888888888889" width="74.55555555555556" height="74.55555555555556" fill="#ffffff"/><rect x="521.89" y="521.89" width="37.28" height="37.28" fill="#ecfced"/><rect x="559.17" y="521.89" width="37.28" height="37.28" fill="#51e654"/><rect x="559.17" y="559.17" width="37.28" height="37.28" fill="#90ef92"/><rect x="596.4444444444445" y="521.8888888888889" width="74.55555555555556" height="74.55555555555556" fill="#ffffff"/><rect x="596.44" y="521.89" width="37.28" height="37.28" fill="#cff8d2"/><rect x="633.72" y="521.89" width="37.28" height="37.28" fill="#c0f6c4"/><rect x="596.44" y="559.17" width="37.28" height="37.28" fill="#ce70ed"/><rect x="671" y="521.8888888888889" width="74.55555555555556" height="74.55555555555556" fill="#ffffff"/><rect x="671" y="521.89" width="37.28" height="37.28" fill="#b527e4"/><rect x="708.28" y="521.89" width="37.28" height="37.28" fill="#4de650"/><rect x="671" y="559.17" width="37.28" height="37.28" fill="#dafada"/><rect x="708.28" y="559.17" width="37.28" height="37.28" fill="#d98ff1"/><rect x="745.5555555555555" y="521.8888888888889" width="74.55555555555556" height="74.55555555555556" fill="#ffffff"/><rect x="745.56" y="521.89" width="37.28" height="37.28" fill="#85ed86"/><rect x="782.83" y="521.89" width="37.28" height="37.28" fill="#f4b5e9"/><rect x="745.56" y="559.17" width="37.28" height="37.28" fill="#be42e7"/><rect x="782.83" y="559.17" width="37.28" height="37.28" fill="#da92f1"/><rect x="820.1111111111111" y="521.8888888888889" width="74.55555555555556" height="74.55555555555556" fill="#ffffff"/><rect x="820.11" y="521.89" width="37.28" height="37.28" fill="#ec7bd7"/><rect x="857.39" y="521.89" width="37.28" height="37.28" fill="#e3aef5"/><rect x="820.11" y="559.17" width="37.28" height="37.28" fill="#f2ffff"/><rect x="857.39" y="559.17" width="37.28" height="37.28" fill="#8aee8c"/><rect x="894.6666666666667" y="521.8888888888889" width="74.55555555555556" height="74.55555555555556" fill="#ffffff"/><rect x="931.94" y="521.89" width="37.28" height="37.28" fill="#f2d9fa"/><rect x="894.67" y="559.17" width="37.28" height="37.28" fill="#3ee341"/><rect x="931.94" y="559.17" width="37.28" height="37.28" fill="#e0a3f3"/><rect x="969.2222222222223" y="521.8888888888889" width="74.55555555555556" height="74.55555555555556" fill="#ffffff"/><rect x="969.22" y="521.89" width="37.28" height="37.28" fill="#b1f4b6"/><rect x="1006.5" y="521.89" width="37.28" height="37.28" fill="#c4f6c7"/><rect x="969.22" y="559.17" width="37.28" height="37.28" fill="#eb76d6"/><rect x="1006.5" y="559.17" width="37.28" height="37.28" fill="#9ef19f"/><rect x="1043.7777777777778" y="521.8888888888889" width="74.55555555555556" height="74.55555555555556" fill="#ffffff"/><rect x="1043.78" y="521.89" width="37.28" height="37.28" fill="#ffffff"/><rect x="1081.06" y="521.89" width="37.28" height="37.28" fill="#9af09b"/><rect x="1043.78" y="559.17" width="37.28" height="37.28" fill="#ffffff"/><rect x="1081.06" y="559.17" width="37.28" height="37.28" fill="#f7c6ee"/><rect x="0" y="596.4444444444445" width="74.55555555555556" height="74.55555555555556" fill="#ffffff"/><rect x="0" y="596.44" width="37.28" height="37.28" fill="#48fffc"/><rect x="37.28" y="596.44" width="37.28" height="37.28" fill="#ef91de"/><rect x="0" y="633.72" width="37.28" height="37.28" fill="#e7b8f6"/><rect x="37.28" y="633.72" width="37.28" height="37.28" fill="#e2aaf4"/><rect x="74.55555555555556" y="596.4444444444445" width="74.55555555555556" height="74.55555555555556" fill="#ffffff"/><rect x="74.56" y="596.44" width="37.28" height="37.28" fill="#f7e6fc"/><rect x="111.83" y="596.44" width="37.28" height="37.28" fill="#fffdfe"/><rect x="74.56" y="633.72" width="37.28" height="37.28" fill="#fefbfe"/><rect x="111.83" y="633.72" width="37.28" height="37.28" fill="#d78af0"/><rect x="149.11111111111111" y="596.4444444444445" width="74.55555555555556" height="74.55555555555556" fill="#ffffff"/><rect x="149.11" y="596.44" width="37.28" height="37.28" fill="#87ee8e"/><rect x="186.39" y="596.44" width="37.28" height="37.28" fill="#dcfade"/><rect x="149.11" y="633.72" width="37.28" height="37.28" fill="#f9d4f2"/><rect x="186.39" y="633.72" width="37.28" height="37.28" fill="#f8cff1"/><rect x="223.66666666666669" y="596.4444444444445" width="74.55555555555556" height="74.55555555555556" fill="#ffffff"/><rect x="223.67" y="596.44" width="37.28" height="37.28" fill="#5ffffd"/><rect x="260.94" y="596.44" width="37.28" height="37.28" fill="#b7f5b8"/><rect x="223.67" y="633.72" width="37.28" height="37.28" fill="#f7ffff"/><rect x="260.94" y="633.72" width="37.28" height="37.28" fill="#ec78d7"/><rect x="298.22222222222223" y="596.4444444444445" width="74.55555555555556" height="74.55555555555556" fill="#ffffff"/><rect x="298.22" y="596.44" width="37.28" height="37.28" fill="#77eb79"/><rect x="335.5" y="596.44" width="37.28" height="37.28" fill="#f5ffff"/><rect x="298.22" y="633.72" width="37.28" height="37.28" fill="#eafcea"/><rect x="335.5" y="633.72" width="37.28" height="37.28" fill="#69fffd"/><rect x="372.77777777777777" y="596.4444444444445" width="74.55555555555556" height="74.55555555555556" fill="#ffffff"/><rect x="372.78" y="596.44" width="37.28" height="37.28" fill="#8def94"/><rect x="410.06" y="596.44" width="37.28" height="37.28" fill="#e652cb"/><rect x="372.78" y="633.72" width="37.28" height="37.28" fill="#bdf5c0"/><rect x="410.06" y="633.72" width="37.28" height="37.28" fill="#cb66ec"/><rect x="447.33333333333337" y="596.4444444444445" width="74.55555555555556" height="74.55555555555556" fill="#ffffff"/><rect x="447.33" y="596.44" width="37.28" height="37.28" fill="#c24ce9"/><rect x="484.61" y="596.44" width="37.28" height="37.28" fill="#c0fffe"/><rect x="447.33" y="633.72" width="37.28" height="37.28" fill="#ebc6f8"/><rect x="484.61" y="633.72" width="37.28" height="37.28" fill="#f9ffff"/><rect x="521.8888888888889" y="596.4444444444445" width="74.55555555555556" height="74.55555555555556" fill="#ffffff"/><rect x="521.89" y="596.44" width="37.28" height="37.28" fill="#ca64ec"/><rect x="559.17" y="596.44" width="37.28" height="37.28" fill="#56e758"/><rect x="521.89" y="633.72" width="37.28" height="37.28" fill="#f3ffff"/><rect x="559.17" y="633.72" width="37.28" height="37.28" fill="#77eb7f"/><rect x="596.4444444444445" y="596.4444444444445" width="74.55555555555556" height="74.55555555555556" fill="#ffffff"/><rect x="596.44" y="596.44" width="37.28" height="37.28" fill="#a2f2a3"/><rect x="633.72" y="596.44" width="37.28" height="37.28" fill="#ed81d9"/><rect x="596.44" y="633.72" width="37.28" height="37.28" fill="#e965d1"/><rect x="633.72" y="633.72" width="37.28" height="37.28" fill="#e5fbe5"/><rect x="671" y="596.4444444444445" width="74.55555555555556" height="74.55555555555556" fill="#ffffff"/><rect x="671" y="596.44" width="37.28" height="37.28" fill="#b9f5ba"/><rect x="708.28" y="596.44" width="37.28" height="37.28" fill="#f6fef7"/><rect x="671" y="633.72" width="37.28" height="37.28" fill="#edffff"/><rect x="708.28" y="633.72" width="37.28" height="37.28" fill="#fdf2fb"/><rect x="745.5555555555555" y="596.4444444444445" width="74.55555555555556" height="74.55555555555556" fill="#ffffff"/><rect x="745.56" y="596.44" width="37.28" height="37.28" fill="#e755cc"/><rect x="782.83" y="596.44" width="37.28" height="37.28" fill="#f8fef9"/><rect x="745.56" y="633.72" width="37.28" height="37.28" fill="#5ce85e"/><rect x="782.83" y="633.72" width="37.28" height="37.28" fill="#b7fffe"/><rect x="820.1111111111111" y="596.4444444444445" width="74.55555555555556" height="74.55555555555556" fill="#ffffff"/><rect x="820.11" y="596.44" width="37.28" height="37.28" fill="#9efffe"/><rect x="857.39" y="596.44" width="37.28" height="37.28" fill="#f5e2fb"/><rect x="820.11" y="633.72" width="37.28" height="37.28" fill="#66fffd"/><rect x="857.39" y="633.72" width="37.28" height="37.28" fill="#be42e7"/><rect x="894.6666666666667" y="596.4444444444445" width="74.55555555555556" height="74.55555555555556" fill="#ffffff"/><rect x="894.67" y="596.44" width="37.28" height="37.28" fill="#b6f5b7"/><rect x="931.94" y="596.44" width="37.28" height="37.28" fill="#bf45e8"/><rect x="894.67" y="633.72" width="37.28" height="37.28" fill="#69fffd"/><rect x="931.94" y="633.72" width="37.28" height="37.28" fill="#d2f9d3"/><rect x="969.2222222222223" y="596.4444444444445" width="74.55555555555556" height="74.55555555555556" fill="#ffffff"/><rect x="969.22" y="596.44" width="37.28" height="37.28" fill="#f1fdf2"/><rect x="1006.5" y="596.44" width="37.28" height="37.28" fill="#3fe341"/><rect x="969.22" y="633.72" width="37.28" height="37.28" fill="#fef6fc"/><rect x="1006.5" y="633.72" width="37.28" height="37.28" fill="#f9d3f2"/><rect x="1043.7777777777778" y="596.4444444444445" width="74.55555555555556" height="74.55555555555556" fill="#ffffff"/><rect x="1043.78" y="596.44" width="37.28" height="37.28" fill="#80ed82"/><rect x="1081.06" y="596.44" width="37.28" height="37.28" fill="#dbfadc"/><rect x="1043.78" y="633.72" width="37.28" height="37.28" fill="#ea6cd3"/><rect x="1081.06" y="633.72" width="37.28" height="37.28" fill="#e5b2f5"/></g></svg>